HIERARCHY
ROOT Hips
{
	OFFSET -0.001795 -0.223333 0.028219
	CHANNELS 6 Xposition Yposition Zposition Zrotation Yrotation Xrotation 
	JOINT LeftUpLeg
	{
		OFFSET 0.069520 -0.091406 -0.006815
		CHANNELS 3 Zrotation Yrotation Xrotation
		JOINT LeftLeg
		{
			OFFSET 0.034277 -0.375199 -0.004496
			CHANNELS 3 Zrotation Yrotation Xrotation
			JOINT LeftFoot
			{
				OFFSET -0.013596 -0.397961 -0.043693
				CHANNELS 3 Zrotation Yrotation Xrotation
				JOINT LeftToe
				{
					OFFSET 0.026358 -0.055791 0.119288
					CHANNELS 3 Zrotation Yrotation Xrotation
					End Site
					{
						OFFSET 0.000000 0.000000 0.000000
					}
				}
			}
		}
	}
	JOINT RightUpLeg
	{
		OFFSET -0.067670 -0.090522 -0.004320
		CHANNELS 3 Zrotation Yrotation Xrotation
		JOINT RightLeg
		{
			OFFSET -0.038290 -0.382569 -0.008850
			CHANNELS 3 Zrotation Yrotation Xrotation
			JOINT RightFoot
			{
				OFFSET 0.015774 -0.398415 -0.042312
				CHANNELS 3 Zrotation Yrotation Xrotation
				JOINT RightToe
				{
					OFFSET -0.025372 -0.048144 0.123348
					CHANNELS 3 Zrotation Yrotation Xrotation
					End Site
					{
						OFFSET 0.000000 0.000000 0.000000
					}
				}
			}
		}
	}
	JOINT Spine
	{
		OFFSET -0.002533 0.108963 -0.026696
		CHANNELS 3 Zrotation Yrotation Xrotation
		JOINT Spine1
		{
			OFFSET 0.005487 0.135180 0.001092
			CHANNELS 3 Zrotation Yrotation Xrotation
			JOINT Spine2
			{
				OFFSET 0.001457 0.052922 0.025425
				CHANNELS 3 Zrotation Yrotation Xrotation
				JOINT Neck
				{
					OFFSET -0.002778 0.213870 -0.042857
					CHANNELS 3 Zrotation Yrotation Xrotation
					JOINT Head
					{
						OFFSET 0.005152 0.064970 0.051349
						CHANNELS 3 Zrotation Yrotation Xrotation
						End Site
						{
							OFFSET 0.000000 0.000000 0.000000
						}
					}
				}
				JOINT LeftShoulder
				{
					OFFSET 0.078845 0.121749 -0.034090
					CHANNELS 3 Zrotation Yrotation Xrotation
					JOINT LeftArm
					{
						OFFSET 0.090977 0.030469 -0.008868
						CHANNELS 3 Zrotation Yrotation Xrotation
						JOINT LeftForeArm
						{
							OFFSET 0.259612 -0.012772 -0.027456
							CHANNELS 3 Zrotation Yrotation Xrotation
							JOINT LeftHand
							{
								OFFSET 0.249234 0.008986 -0.001171
								CHANNELS 3 Zrotation Yrotation Xrotation
								End Site
								{
									OFFSET 0.000000 0.000000 0.000000
								}
							}
						}
					}
				}
				JOINT RightShoulder
				{
					OFFSET -0.081759 0.118833 -0.038615
					CHANNELS 3 Zrotation Yrotation Xrotation
					JOINT RightArm
					{
						OFFSET -0.096012 0.032551 -0.009143
						CHANNELS 3 Zrotation Yrotation Xrotation
						JOINT RightForeArm
						{
							OFFSET -0.253742 -0.013329 -0.021401
							CHANNELS 3 Zrotation Yrotation Xrotation
							JOINT RightHand
							{
								OFFSET -0.255298 0.007772 -0.005559
								CHANNELS 3 Zrotation Yrotation Xrotation
								End Site
								{
									OFFSET 0.000000 0.000000 0.000000
								}
							}
						}
					}
				}
			}
		}
	}
}
MOTION
Frames: 18
Frame Time: 0.050000
-0.006763 0.962153 0.093640 -1.672949 -14.853490 5.914611 5.605886 -0.131806 -4.270292 -3.326372 0.483231 1.511059 8.957784 17.947047 10.551548 0.000000 0.000000 0.000000 -2.579613 0.885397 -9.091860 1.255467 0.160711 6.056819 -1.724695 -9.582369 10.618128 0.000000 0.000000 0.000000 -4.700428 0.196028 -1.552225 9.138752 -1.865862 -21.957553 -3.607483 -8.435063 26.732908 7.316391 -5.558629 -23.039023 0.000000 0.000000 0.000000 -20.312527 10.816035 -3.392470 -57.198232 -2.575925 -7.487252 -12.732926 -48.362775 11.906775 0.000000 0.000000 0.000000 9.326296 -0.696397 -3.158824 57.474292 10.546159 -3.804061 164.259386 79.702643 158.077036 0.000000 0.000000 0.000000 
-0.006522 0.963268 0.092046 -1.539111 -16.336065 5.765616 5.351405 -0.106357 -3.828633 -3.170621 0.471004 1.329162 9.033113 17.941518 10.988252 0.000000 0.000000 0.000000 -2.373330 0.874416 -8.913830 0.675359 0.205813 5.416789 -1.103012 -8.805507 11.096957 0.000000 0.000000 0.000000 -4.654320 0.204775 -2.043447 8.321659 -1.701603 -21.881840 -2.746085 -6.070915 26.749350 7.717138 -5.642429 -22.666276 0.000000 0.000000 0.000000 -20.922337 9.890202 -3.104737 -56.479827 -3.593014 -7.134956 -11.982840 -45.243630 10.308363 0.000000 0.000000 0.000000 9.251980 2.846237 -1.428000 52.379603 19.782082 0.603519 -83.794657 78.833017 -74.483470 0.000000 0.000000 0.000000 
-0.006431 0.963765 0.089928 -1.242236 -16.936135 5.303310 5.076104 -0.100191 -3.633127 -3.439838 0.526153 1.736667 9.155929 18.164279 10.597944 0.000000 0.000000 0.000000 -2.732779 0.862985 -8.815089 0.775653 0.202182 5.510847 -1.233494 -9.281078 11.525140 0.000000 0.000000 0.000000 -4.701491 0.203916 -2.239946 7.994034 -1.625900 -21.969366 -2.550987 -4.023468 26.898684 8.411170 -5.729335 -23.370086 0.000000 0.000000 0.000000 -20.183756 9.231124 -3.055772 -57.058232 -3.801828 -7.057187 -11.098859 -43.188851 9.171184 0.000000 0.000000 0.000000 8.154784 5.488635 0.143021 47.626908 29.921471 4.214798 -57.389220 63.514331 -37.858794 0.000000 0.000000 0.000000 
-0.006702 0.964477 0.087570 -1.283254 -16.905652 5.137626 5.159826 -0.096913 -3.751849 -3.594036 0.556136 1.970226 9.218527 18.234636 10.876071 0.000000 0.000000 0.000000 -2.384193 0.863905 -8.814897 0.212366 0.258737 5.354505 -1.001633 -9.143699 12.167123 0.000000 0.000000 0.000000 -4.372811 0.190223 -2.102985 7.314782 -1.438846 -22.305703 -1.978319 -2.681282 26.803131 8.546759 -5.662927 -23.163676 0.000000 0.000000 0.000000 -19.888517 8.666974 -2.982389 -57.484527 -3.250743 -7.352141 -10.009016 -41.890210 8.253164 0.000000 0.000000 0.000000 6.844908 7.683174 1.412456 43.791198 38.811898 6.652049 -49.788564 48.121485 -23.051999 0.000000 0.000000 0.000000 
-0.007537 0.964203 0.085431 -1.211861 -16.518769 5.158249 5.226703 -0.113020 -4.127979 -3.641105 0.571880 2.685810 8.957273 17.855348 10.405368 0.000000 0.000000 0.000000 -2.336874 0.853035 -8.710016 0.113100 0.264232 5.276641 -1.123430 -9.605264 12.893204 0.000000 0.000000 0.000000 -4.493672 0.194140 -2.240673 7.288166 -1.398806 -22.576365 -2.024342 -2.427083 27.092593 8.814242 -5.785720 -23.088747 0.000000 0.000000 0.000000 -19.700876 8.521709 -2.982510 -58.126275 -3.197962 -7.438252 -8.737326 -40.366972 7.363132 0.000000 0.000000 0.000000 5.488482 8.596082 2.019671 41.710654 43.939044 7.684019 -51.445254 41.668796 -20.178915 0.000000 0.000000 0.000000 
-0.009025 0.963909 0.083573 -1.223210 -15.774522 5.315339 5.718841 -0.115136 -4.710067 -4.023548 0.644455 3.354655 8.213791 16.671271 9.661917 0.000000 0.000000 0.000000 -2.293647 0.865815 -8.854396 0.389906 0.242193 5.510806 -1.332724 -9.882383 12.905493 0.000000 0.000000 0.000000 -4.924082 0.206594 -2.455646 7.548505 -1.473830 -22.366610 -1.996034 -3.027551 27.032594 9.131007 -5.883128 -23.776532 0.000000 0.000000 0.000000 -19.261181 8.765579 -3.108443 -59.112141 -2.878513 -7.580411 -8.582411 -39.900490 7.244974 0.000000 0.000000 0.000000 5.532312 8.368736 1.920052 43.394640 44.887404 8.500620 -56.536096 42.760122 -23.101936 0.000000 0.000000 0.000000 
-0.010925 0.963581 0.081959 -1.415685 -15.533307 5.374453 5.934687 -0.112672 -4.976697 -3.900311 0.623852 3.580984 7.778441 15.940464 9.329119 0.000000 0.000000 0.000000 -2.144937 0.839261 -8.571766 0.529462 0.203408 5.132717 -1.271060 -9.908832 13.349627 0.000000 0.000000 0.000000 -5.342806 0.216587 -2.481995 8.064723 -1.594768 -22.299560 -2.022414 -3.769425 27.273757 8.684712 -5.680010 -24.127604 0.000000 0.000000 0.000000 -19.883905 9.091796 -3.173256 -59.288909 -2.984559 -7.603385 -7.530871 -39.824035 6.922453 0.000000 0.000000 0.000000 6.512327 7.648743 1.443390 48.121297 42.693756 9.066929 -63.780660 48.580497 -30.673807 0.000000 0.000000 0.000000 
-0.013021 0.963118 0.080538 -1.568629 -15.427930 5.388571 6.031688 -0.120753 -5.418127 -3.774924 0.603046 3.753367 7.364290 15.230193 9.008840 0.000000 0.000000 0.000000 -2.278711 0.796870 -8.137815 1.056787 0.117466 4.642354 -1.443863 -10.300766 13.698258 0.000000 0.000000 0.000000 -5.902848 0.230911 -2.613896 8.508023 -1.702987 -22.200228 -2.042626 -4.831898 27.634583 8.040131 -5.346392 -25.058585 0.000000 0.000000 0.000000 -20.415471 9.515211 -3.215736 -59.875719 -3.034287 -7.645544 -6.910710 -40.193473 6.909347 0.000000 0.000000 0.000000 7.624849 6.334078 0.624904 53.777292 37.384857 8.171656 -70.479476 58.074754 -42.302723 0.000000 0.000000 0.000000 
-0.014978 0.963093 0.079299 -1.821574 -15.096704 5.275479 6.384666 -0.097410 -5.386681 -3.636553 0.569694 3.567761 7.162916 14.885726 9.191545 0.000000 0.000000 0.000000 -1.855405 0.769074 -7.846966 0.917210 0.143679 4.891518 -1.305522 -9.916960 13.412106 0.000000 0.000000 0.000000 -6.246436 0.234384 -2.331053 8.901888 -1.805525 -22.087913 -2.058193 -6.035849 27.865666 7.562046 -5.225145 -25.218777 0.000000 0.000000 0.000000 -21.383495 10.036369 -3.303192 -59.355352 -3.669763 -7.409694 -7.059352 -41.434676 7.374350 0.000000 0.000000 0.000000 8.660758 4.889638 -0.303730 57.896053 29.872935 5.312036 -74.451778 69.418301 -55.478481 0.000000 0.000000 0.000000 
-0.016590 0.963121 0.078204 -1.830745 -15.457956 5.158421 6.230407 -0.096984 -5.208084 -3.421238 0.528558 3.195156 7.360055 15.199576 9.498654 0.000000 0.000000 0.000000 -1.938626 0.751836 -7.670972 0.984905 0.135099 4.844474 -1.143760 -9.547524 13.082690 0.000000 0.000000 0.000000 -6.161092 0.231831 -2.173890 9.060600 -1.836752 -22.136329 -2.447853 -6.710064 28.129084 6.792380 -4.913169 -25.420958 0.000000 0.000000 0.000000 -21.487556 10.435133 -3.353451 -59.102387 -4.260062 -7.118570 -7.512734 -42.701137 7.969815 0.000000 0.000000 0.000000 9.769342 3.008161 -1.483419 60.830391 21.666545 1.407326 -66.740688 81.404938 -59.735225 0.000000 0.000000 0.000000 
-0.018042 0.963120 0.076934 -1.926345 -15.575727 4.937462 6.355279 -0.077898 -5.037589 -3.194791 0.489025 3.128683 7.357329 15.165850 9.952349 0.000000 0.000000 0.000000 -1.498752 0.724772 -7.400993 0.553677 0.186884 4.890028 -0.942913 -9.085234 12.750288 0.000000 0.000000 0.000000 -6.246806 0.230856 -1.754637 9.305535 -1.918595 -21.957479 -2.660953 -7.693323 27.946318 6.180634 -4.816607 -24.521690 0.000000 0.000000 0.000000 -22.386644 10.827402 -3.335697 -58.265750 -4.712811 -6.977757 -7.823850 -45.408991 8.940860 0.000000 0.000000 0.000000 10.227779 2.055435 -2.184909 62.461117 14.154698 -2.538589 15.758013 84.226306 12.718285 0.000000 0.000000 0.000000 
-0.019414 0.963169 0.075524 -1.769123 -16.150571 4.627445 6.158974 -0.070772 -4.789450 -2.989108 0.458160 3.062999 7.412352 15.207420 10.290447 0.000000 0.000000 0.000000 -1.452419 0.706190 -7.222384 0.185872 0.235957 4.976637 -0.563345 -8.164112 11.984241 0.000000 0.000000 0.000000 -6.095055 0.223184 -1.396611 9.341710 -1.949987 -21.830875 -2.984201 -8.086293 27.966506 5.516294 -4.530258 -24.752994 0.000000 0.000000 0.000000 -22.624745 11.094587 -3.307815 -57.651526 -5.481545 -6.658027 -9.066810 -47.430386 10.182125 0.000000 0.000000 0.000000 10.604870 1.125410 -2.822467 63.640660 7.633472 -6.155910 49.614985 78.478860 39.240899 0.000000 0.000000 0.000000 
-0.020881 0.963209 0.074022 -1.811260 -16.707784 4.655760 6.087582 -0.063191 -4.697846 -2.768776 0.423495 2.895945 7.756105 15.709355 11.006948 0.000000 0.000000 0.000000 -1.205010 0.714846 -7.311986 -0.202006 0.274381 4.843105 -0.314259 -7.760909 11.909288 0.000000 0.000000 0.000000 -5.884668 0.219099 -1.411160 9.359867 -1.980689 -21.633824 -3.215143 -8.571120 27.881526 5.209642 -4.508005 -24.328754 0.000000 0.000000 0.000000 -23.043831 11.095904 -3.053313 -57.234014 -6.114219 -6.443211 -8.801106 -49.954569 10.980500 0.000000 0.000000 0.000000 10.801323 0.500462 -3.312904 64.363135 2.683027 -8.974822 49.740242 73.164444 35.431112 0.000000 0.000000 0.000000 
-0.022317 0.963360 0.072675 -1.873676 -17.868662 4.660110 6.199539 -0.029199 -4.519767 -2.685780 0.422188 3.031206 8.235911 16.443290 10.978554 0.000000 0.000000 0.000000 -1.088785 0.723006 -7.396054 -0.226925 0.269353 4.667523 -0.013092 -7.160629 11.480036 0.000000 0.000000 0.000000 -5.333649 0.206359 -1.549877 9.124834 -1.981082 -21.274516 -3.376081 -8.291825 27.784973 4.558143 -4.245369 -23.651211 0.000000 0.000000 0.000000 -23.231458 10.496700 -2.504139 -56.927336 -6.897523 -6.150378 -7.900195 -51.148380 10.960004 0.000000 0.000000 0.000000 10.428869 -0.349076 -3.640052 65.555514 -1.686328 -11.792664 54.339993 68.662715 35.872546 0.000000 0.000000 0.000000 
-0.023685 0.963489 0.071589 -1.817316 -18.410729 4.794563 6.090697 -0.025671 -4.392855 -2.487390 0.388175 2.656783 8.270359 16.414687 11.432495 0.000000 0.000000 0.000000 -0.808132 0.761213 -7.761801 -0.455367 0.302298 4.764060 -0.013210 -7.145342 11.286366 0.000000 0.000000 0.000000 -5.055754 0.201812 -1.530757 9.008143 -1.991225 -20.994547 -3.673243 -8.651289 27.433051 3.787150 -3.917599 -23.141691 0.000000 0.000000 0.000000 -23.444891 10.496017 -2.293714 -56.672059 -7.647230 -5.832134 -7.507894 -52.044198 11.175432 0.000000 0.000000 0.000000 10.427115 -0.902654 -4.018974 66.436914 -4.621278 -13.706622 56.691458 66.081182 35.521665 0.000000 0.000000 0.000000 
-0.024893 0.963619 0.070743 -1.746125 -19.435550 4.818811 6.039676 0.000453 -3.979240 -2.492217 0.395959 2.391529 8.763440 17.170009 11.562240 0.000000 0.000000 0.000000 -0.777046 0.786923 -8.004794 -0.476683 0.312285 4.847044 0.360982 -6.454476 11.027548 0.000000 0.000000 0.000000 -4.698301 0.196285 -1.632438 8.651236 -1.937513 -20.834451 -3.666957 -8.264094 27.438394 3.095204 -3.612965 -22.063598 0.000000 0.000000 0.000000 -23.127507 9.922300 -1.842874 -56.318286 -8.046900 -5.646370 -7.050206 -52.077941 10.965336 0.000000 0.000000 0.000000 10.274893 -1.714205 -4.371036 67.354420 -6.923560 -15.406426 60.888517 63.374002 36.510749 0.000000 0.000000 0.000000 
-0.025952 0.963536 0.070009 -1.577066 -19.710773 4.744578 5.823214 -0.006034 -3.840834 -2.200365 0.346124 2.290093 8.626421 16.838976 12.225339 0.000000 0.000000 0.000000 -0.788246 0.814233 -8.257158 -0.526687 0.324197 4.933340 0.239208 -6.857235 11.306100 0.000000 0.000000 0.000000 -4.496103 0.187989 -1.503305 8.537818 -1.959920 -20.464737 -3.821393 -8.291093 27.112471 2.395432 -3.202820 -22.058012 0.000000 0.000000 0.000000 -23.184306 9.658079 -1.608693 -56.235258 -8.921944 -5.252113 -6.464682 -51.595456 10.553432 0.000000 0.000000 0.000000 10.534140 -1.957640 -4.618664 68.124682 -8.100386 -16.285963 64.448703 62.220763 38.037933 0.000000 0.000000 0.000000 
-0.026856 0.963244 0.069380 -1.387526 -20.235684 4.797776 5.551369 -0.018064 -3.843412 -2.007293 0.316473 2.253565 8.699298 16.945792 11.963741 0.000000 0.000000 0.000000 -1.118344 0.855756 -8.642834 -0.395653 0.320290 5.067788 0.380978 -6.777429 11.526711 0.000000 0.000000 0.000000 -4.463065 0.193227 -1.716383 8.464671 -1.975134 -20.219353 -3.830668 -7.927590 27.120513 2.114812 -3.032130 -21.976131 0.000000 0.000000 0.000000 -22.462164 9.156469 -1.335964 -56.600452 -9.474606 -4.888447 -6.458982 -49.914473 10.049160 0.000000 0.000000 0.000000 10.584898 -1.882735 -4.623266 68.802452 -9.057450 -17.068350 70.049702 60.906040 40.886333 0.000000 0.000000 0.000000 
